<?xml version="1.0" encoding="UTF-8"?>
<!DOCTYPE svg PUBLIC "-//W3C//DTD SVG 1.1//EN" "http://www.w3.org/Graphics/SVG/1.1/DTD/svg11.dtd">
<svg xmlns="http://www.w3.org/2000/svg" version="1.1" width="300px" height="300px" style="shape-rendering:geometricPrecision; text-rendering:geometricPrecision; image-rendering:optimizeQuality; fill-rule:evenodd; clip-rule:evenodd" xmlns:xlink="http://www.w3.org/1999/xlink">
<g><path style="opacity:1" fill="#fe8574" d="M -0.5,-0.5 C 99.5,-0.5 199.5,-0.5 299.5,-0.5C 299.5,99.5 299.5,199.5 299.5,299.5C 199.5,299.5 99.5,299.5 -0.5,299.5C -0.5,276.167 -0.5,252.833 -0.5,229.5C 12.1711,229.667 24.8377,229.5 37.5,229C 39.8474,228.288 41.8474,227.121 43.5,225.5C 35.6818,219.513 28.1818,213.179 21,206.5C 12.5261,194.55 5.35944,181.883 -0.5,168.5C -0.5,165.833 -0.5,163.167 -0.5,160.5C 4.42463,153.978 7.75796,146.644 9.5,138.5C 12.0272,137.786 14.5272,137.12 17,136.5C 20.0812,130.669 23.4145,125.002 27,119.5C 27.7374,109.618 25.5707,100.451 20.5,92C 15.0007,92.941 11.6674,90.7744 10.5,85.5C 11.2776,83.853 12.4443,82.5196 14,81.5C 14.6667,80.5 14.6667,79.5 14,78.5C 11.5169,76.8519 9.68355,74.6852 8.5,72C 5.79351,70.0924 2.79351,69.259 -0.5,69.5C -0.5,46.1667 -0.5,22.8333 -0.5,-0.5 Z"/></g>
<g><path style="opacity:1" fill="#ae7067" d="M -0.5,69.5 C 2.79351,69.259 5.79351,70.0924 8.5,72C 9.68355,74.6852 11.5169,76.8519 14,78.5C 14.6667,79.5 14.6667,80.5 14,81.5C 12.4443,82.5196 11.2776,83.853 10.5,85.5C 11.6674,90.7744 15.0007,92.941 20.5,92C 25.5707,100.451 27.7374,109.618 27,119.5C 23.4145,125.002 20.0812,130.669 17,136.5C 14.5272,137.12 12.0272,137.786 9.5,138.5C 7.75796,146.644 4.42463,153.978 -0.5,160.5C -0.5,137.833 -0.5,115.167 -0.5,92.5C 1.5638,92.2381 2.89713,91.0714 3.5,89C 2.1807,88.805 0.847364,88.9717 -0.5,89.5C -0.5,82.8333 -0.5,76.1667 -0.5,69.5 Z"/></g>
<g><path style="opacity:1" fill="#fffcfb" d="M 94.5,95.5 C 94.7234,99.1621 95.7234,102.495 97.5,105.5C 98.4345,106.568 98.7678,107.901 98.5,109.5C 98.693,113.566 98.3597,117.566 97.5,121.5C 94.3155,126.687 90.9821,131.854 87.5,137C 85.5273,137.495 83.5273,137.662 81.5,137.5C 80.9836,140.899 80.1503,144.232 79,147.5C 76.441,151.971 73.941,156.304 71.5,160.5C 70.3622,163.304 70.1955,166.304 71,169.5C 71.3826,170.056 71.8826,170.389 72.5,170.5C 77.9737,182.785 84.4737,194.451 92,205.5C 99.3925,212.729 107.226,219.396 115.5,225.5C 113.955,227.44 111.955,228.606 109.5,229C 89.8362,229.5 70.1695,229.667 50.5,229.5C 50.5,226.833 50.5,224.167 50.5,221.5C 52.2354,214.736 53.2354,207.736 53.5,200.5C 53.5,199.167 53.5,197.833 53.5,196.5C 54.889,191.731 55.5557,186.731 55.5,181.5C 57.025,175.07 57.6917,168.404 57.5,161.5C 57.4992,156.654 57.1659,151.988 56.5,147.5C 55.6868,146.347 54.6868,146.347 53.5,147.5C 53.1667,146.5 52.8333,145.5 52.5,144.5C 52.3402,142.645 53.0069,141.312 54.5,140.5C 55.1599,139.036 55.4932,137.369 55.5,135.5C 55.6183,132.514 54.9517,129.848 53.5,127.5C 52.0403,124.296 51.5403,120.962 52,117.5C 54.7049,113.423 56.8716,109.09 58.5,104.5C 59.9063,104.027 60.573,103.027 60.5,101.5C 61.8367,95.6666 65.5034,92.8332 71.5,93C 72.3567,92.3109 73.0233,91.4776 73.5,90.5C 71.2529,89.7554 69.4196,88.422 68,86.5C 66.9766,82.953 65.81,79.453 64.5,76C 68.4431,68.7907 73.7764,67.6241 80.5,72.5C 82.2903,75.0163 83.9569,77.5163 85.5,80C 85.5317,81.9711 84.6984,83.4711 83,84.5C 82.0799,87.3083 82.9133,89.4749 85.5,91C 88.2889,91.2414 90.9556,91.908 93.5,93C 94.2524,93.6708 94.5858,94.5041 94.5,95.5 Z"/></g>
<g><path style="opacity:1" fill="#ed8071" d="M -0.5,92.5 C -0.5,91.5 -0.5,90.5 -0.5,89.5C 0.847364,88.9717 2.1807,88.805 3.5,89C 2.89713,91.0714 1.5638,92.2381 -0.5,92.5 Z"/></g>
<g><path style="opacity:1" fill="#ffcac2" d="M 94.5,95.5 C 96.2766,98.5046 97.2766,101.838 97.5,105.5C 95.7234,102.495 94.7234,99.1621 94.5,95.5 Z"/></g>
<g><path style="opacity:1" fill="#ffbeb4" d="M 60.5,101.5 C 60.573,103.027 59.9063,104.027 58.5,104.5C 58.427,102.973 59.0937,101.973 60.5,101.5 Z"/></g>
<g><path style="opacity:1" fill="#f88373" d="M 17.5,105.5 C 18.7899,106.058 19.6232,107.058 20,108.5C 20.3729,110.698 20.8729,112.865 21.5,115C 19.3891,121.165 17.3891,127.332 15.5,133.5C 14.0695,133.579 12.7362,133.246 11.5,132.5C 9.007,124.76 10.507,118.094 16,112.5C 17.2022,110.323 17.7022,107.989 17.5,105.5 Z"/></g>
<g><path style="opacity:1" fill="#ffe9e6" d="M 184.5,106.5 C 185.5,106.5 186.5,106.5 187.5,106.5C 187.5,114.833 187.5,123.167 187.5,131.5C 186.5,131.5 185.5,131.5 184.5,131.5C 184.5,123.167 184.5,114.833 184.5,106.5 Z"/></g>
<g><path style="opacity:1" fill="#fff1ef" d="M 243.5,126.5 C 244.925,124.969 245.591,125.302 245.5,127.5C 243.424,130.702 240.424,132.035 236.5,131.5C 232.719,132.173 229.886,130.839 228,127.5C 226.282,120.557 226.115,113.557 227.5,106.5C 228.075,113.247 228.909,119.914 230,126.5C 234.614,130.481 239.114,130.481 243.5,126.5 Z"/></g>
<g><path style="opacity:1" fill="#ffe1dd" d="M 245.5,127.5 C 245.591,125.302 244.925,124.969 243.5,126.5C 244.423,119.891 244.756,113.224 244.5,106.5C 245.5,106.5 246.5,106.5 247.5,106.5C 247.666,112.842 247.5,119.175 247,125.5C 246.722,126.416 246.222,127.082 245.5,127.5 Z"/></g>
<g><path style="opacity:1" fill="#ffedea" d="M 255.5,106.5 C 259.555,106.176 263.555,106.509 267.5,107.5C 264.572,108.484 261.572,108.817 258.5,108.5C 258.5,111.5 258.5,114.5 258.5,117.5C 270.5,118.167 270.5,118.833 258.5,119.5C 258.5,122.833 258.5,126.167 258.5,129.5C 261.898,129.18 265.232,129.513 268.5,130.5C 264.217,131.492 259.884,131.826 255.5,131.5C 255.5,123.167 255.5,114.833 255.5,106.5 Z"/></g>
<g><path style="opacity:1" fill="#ff8c7c" d="M 90.5,105.5 C 90.4095,108.152 91.0762,110.485 92.5,112.5C 92.5,114.5 92.5,116.5 92.5,118.5C 90.7549,120.033 89.7549,122.033 89.5,124.5C 88.6993,126.042 88.366,127.708 88.5,129.5C 87.0337,130.347 86.2004,131.68 86,133.5C 85.3292,132.748 84.4959,132.414 83.5,132.5C 82.3503,127.684 82.1837,122.684 83,117.5C 84.3712,115.959 85.8712,114.625 87.5,113.5C 88.1174,113.389 88.6174,113.056 89,112.5C 89.1862,109.964 89.6862,107.631 90.5,105.5 Z"/></g>
<g><path style="opacity:1" fill="#ffbbb1" d="M 90.5,105.5 C 91.9238,107.515 92.5905,109.848 92.5,112.5C 91.0762,110.485 90.4095,108.152 90.5,105.5 Z"/></g>
<g><path style="opacity:1" fill="#ff9384" d="M 63.5,107.5 C 66.1381,108.242 67.4714,110.075 67.5,113C 64.5445,116.924 61.3778,120.757 58,124.5C 57.3333,122.167 57.3333,119.833 58,117.5C 59.8339,114.134 61.6672,110.801 63.5,107.5 Z"/></g>
<g><path style="opacity:1" fill="#ffb3a8" d="M 90.5,105.5 C 89.6862,107.631 89.1862,109.964 89,112.5C 88.6174,113.056 88.1174,113.389 87.5,113.5C 87.9808,110.478 88.6475,107.478 89.5,104.5C 90.1067,104.624 90.44,104.957 90.5,105.5 Z"/></g>
<g><path style="opacity:1" fill="#ffcac2" d="M 98.5,109.5 C 99.6433,112.976 99.8099,116.642 99,120.5C 98.6174,121.056 98.1174,121.389 97.5,121.5C 98.3597,117.566 98.693,113.566 98.5,109.5 Z"/></g>
<g><path style="opacity:1" fill="#ffb9af" d="M 92.5,118.5 C 92.2451,120.967 91.2451,122.967 89.5,124.5C 89.7549,122.033 90.7549,120.033 92.5,118.5 Z"/></g>
<g><path style="opacity:1" fill="#ffebe8" d="M 123.5,104.5 C 125.3,110.758 126.133,117.425 126,124.5C 129.366,129.609 133.866,130.776 139.5,128C 140.701,127.097 141.535,125.931 142,124.5C 142.5,117.842 142.666,111.175 142.5,104.5C 143.5,104.5 144.5,104.5 145.5,104.5C 145.666,111.175 145.5,117.842 145,124.5C 141.815,130.907 136.648,133.073 129.5,131C 127.714,130.215 126.214,129.049 125,127.5C 123.604,119.92 123.104,112.253 123.5,104.5 Z"/></g>
<g><path style="opacity:1" fill="#ffece9" d="M 171.5,124.5 C 171.783,125.289 172.283,125.956 173,126.5C 173.5,119.842 173.666,113.175 173.5,106.5C 174.825,110.276 175.491,114.443 175.5,119C 175.167,123.167 174.833,127.333 174.5,131.5C 168.511,125.343 162.677,119.009 157,112.5C 156.5,118.825 156.334,125.158 156.5,131.5C 155.5,131.5 154.5,131.5 153.5,131.5C 153.5,123.167 153.5,114.833 153.5,106.5C 154.552,106.351 155.552,106.517 156.5,107C 161.163,113.184 166.163,119.018 171.5,124.5 Z"/></g>
<g><path style="opacity:1" fill="#ffa699" d="M 173.5,106.5 C 173.666,113.175 173.5,119.842 173,126.5C 172.283,125.956 171.783,125.289 171.5,124.5C 172.167,118.5 172.833,112.5 173.5,106.5 Z"/></g>
<g><path style="opacity:1" fill="#ffeeeb" d="M 201.5,106.5 C 208.331,105.051 213.831,107.051 218,112.5C 220.689,118.818 219.523,124.318 214.5,129C 222.966,135.047 232.299,137.047 242.5,135C 237.445,137.341 232.112,138.007 226.5,137C 221.381,135.408 216.548,133.241 212,130.5C 201.234,133.564 195.067,129.564 193.5,118.5C 194.168,113.166 196.835,109.166 201.5,106.5 Z"/></g>
<g><path style="opacity:1" fill="#ff8777" d="M 202.5,108.5 C 213.432,107.694 217.932,112.694 216,123.5C 215.044,124.579 214.211,125.745 213.5,127C 210.588,126.233 207.588,125.399 204.5,124.5C 203.5,124.833 202.5,125.167 201.5,125.5C 204.436,126.115 207.103,127.282 209.5,129C 199.03,129.853 194.863,125.02 197,114.5C 198.36,111.977 200.193,109.977 202.5,108.5 Z"/></g>
<g><path style="opacity:1" fill="#ffbdb4" d="M 53.5,127.5 C 54.9517,129.848 55.6183,132.514 55.5,135.5C 55.4932,137.369 55.1599,139.036 54.5,140.5C 54.5328,136.131 54.1995,131.798 53.5,127.5 Z"/></g>
<g><path style="opacity:1" fill="#ffc6be" d="M 88.5,129.5 C 87.962,131.117 87.6287,132.784 87.5,134.5C 85.6203,134.771 84.287,134.104 83.5,132.5C 84.4959,132.414 85.3292,132.748 86,133.5C 86.2004,131.68 87.0337,130.347 88.5,129.5 Z"/></g>
<g><path style="opacity:1" fill="#ffdfda" d="M 217.5,152.5 C 219.973,152.947 220.14,153.947 218,155.5C 217.517,154.552 217.351,153.552 217.5,152.5 Z"/></g>
<g><path style="opacity:1" fill="#ffd0ca" d="M 169.5,152.5 C 172.957,152.667 173.29,153.667 170.5,155.5C 169.614,154.675 169.281,153.675 169.5,152.5 Z"/></g>
<g><path style="opacity:1" fill="#ffe7e3" d="M 234.5,153.5 C 236.048,153.821 236.715,154.821 236.5,156.5C 240.225,156.78 241.392,158.78 240,162.5C 238.301,163.406 236.467,163.739 234.5,163.5C 234.5,160.167 234.5,156.833 234.5,153.5 Z"/></g>
<g><path style="opacity:1" fill="#ffdbd6" d="M 153.5,154.5 C 154.5,154.5 155.5,154.5 156.5,154.5C 156.5,155.5 156.5,156.5 156.5,157.5C 155.5,157.5 154.5,157.5 153.5,157.5C 153.5,156.5 153.5,155.5 153.5,154.5 Z"/></g>
<g><path style="opacity:1" fill="#ffbeb5" d="M 195.5,156.5 C 195.19,159.713 195.523,162.713 196.5,165.5C 196.44,166.043 196.107,166.376 195.5,166.5C 194.194,163.02 194.194,159.687 195.5,156.5 Z"/></g>
<g><path style="opacity:1" fill="#ffece9" d="M 195.5,156.5 C 200.675,155.507 202.509,157.507 201,162.5C 198.974,162.915 197.474,163.915 196.5,165.5C 195.523,162.713 195.19,159.713 195.5,156.5 Z"/></g>
<g><path style="opacity:1" fill="#ffe6e2" d="M 214.5,156.5 C 216.036,158.025 217.036,160.025 217.5,162.5C 219.37,154.701 220.37,155.035 220.5,163.5C 215.094,164.265 213.094,161.931 214.5,156.5 Z"/></g>
<g><path style="opacity:1" fill="#ffe9e6" d="M 223.5,156.5 C 225.167,156.5 226.833,156.5 228.5,156.5C 228.5,158.833 228.5,161.167 228.5,163.5C 226.5,163.5 224.5,163.5 222.5,163.5C 222.5,162.167 222.5,160.833 222.5,159.5C 223.978,159.762 225.311,159.429 226.5,158.5C 225.726,157.289 224.893,157.289 224,158.5C 223.536,157.906 223.369,157.239 223.5,156.5 Z"/></g>
<g><path style="opacity:1" fill="#ffe2dd" d="M 168.5,156.5 C 171.95,155.756 173.616,157.09 173.5,160.5C 172.022,160.238 170.689,160.571 169.5,161.5C 170.391,162.59 171.391,162.59 172.5,161.5C 173.696,161.846 173.696,162.346 172.5,163C 166.738,163.418 165.404,161.251 168.5,156.5 Z"/></g>
<g><path style="opacity:1" fill="#ffe6e2" d="M 181.5,155.5 C 182.601,154.402 183.934,154.235 185.5,155C 184.556,157.719 184.223,160.552 184.5,163.5C 179.094,164.265 177.094,161.931 178.5,156.5C 180.548,156.84 181.548,156.507 181.5,155.5 Z"/></g>
<g><path style="opacity:1" fill="#ff9080" d="M 180.5,157.5 C 181.649,157.791 182.316,158.624 182.5,160C 182.167,160.833 181.833,161.667 181.5,162.5C 180.548,160.955 180.215,159.288 180.5,157.5 Z"/></g>
<g><path style="opacity:1" fill="#ffe2dd" d="M 188.5,156.5 C 191.95,155.756 193.616,157.09 193.5,160.5C 192.022,160.238 190.689,160.571 189.5,161.5C 190.391,162.59 191.391,162.59 192.5,161.5C 193.696,161.846 193.696,162.346 192.5,163C 186.738,163.418 185.404,161.251 188.5,156.5 Z"/></g>
<g><path style="opacity:1" fill="#ffe7e4" d="M 207.5,156.5 C 209.288,156.215 210.955,156.548 212.5,157.5C 211.609,158.59 210.609,158.59 209.5,157.5C 208.167,159.167 208.167,160.833 209.5,162.5C 210.609,161.41 211.609,161.41 212.5,162.5C 206.74,164.213 205.074,162.213 207.5,156.5 Z"/></g>
<g><path style="opacity:1" fill="#ff8675" d="M 236.5,157.5 C 237.649,157.791 238.316,158.624 238.5,160C 238.167,160.833 237.833,161.667 237.5,162.5C 236.548,160.955 236.215,159.288 236.5,157.5 Z"/></g>
<g><path style="opacity:1" fill="#ffdcd7" d="M 158.5,154.5 C 159.496,154.414 160.329,154.748 161,155.5C 161.333,156.833 161.667,158.167 162,159.5C 162.36,157.579 163.194,155.912 164.5,154.5C 164.833,155.167 165.167,155.833 165.5,156.5C 164.533,158.762 163.866,161.095 163.5,163.5C 162.325,163.719 161.325,163.386 160.5,162.5C 159.705,159.856 159.038,157.189 158.5,154.5 Z"/></g>
<g><path style="opacity:1" fill="#ffa89b" d="M 196.5,157.5 C 197.5,157.5 198.5,157.5 199.5,157.5C 199.5,159.167 199.5,160.833 199.5,162.5C 198.5,162.5 197.5,162.5 196.5,162.5C 196.5,160.833 196.5,159.167 196.5,157.5 Z"/></g>
<g><path style="opacity:1" fill="#ffe7e3" d="M 250.5,156.5 C 252.5,156.5 254.5,156.5 256.5,156.5C 256.37,164.965 255.37,165.299 253.5,157.5C 251.63,165.299 250.63,164.965 250.5,156.5 Z"/></g>
<g><path style="opacity:1" fill="#ff9080" d="M 224.5,160.5 C 226.337,160.639 226.67,161.306 225.5,162.5C 224.702,162.043 224.369,161.376 224.5,160.5 Z"/></g>
<g><path style="opacity:1" fill="#ffe6e2" d="M 243.5,156.5 C 245.144,156.286 246.644,156.62 248,157.5C 248.495,159.473 248.662,161.473 248.5,163.5C 246.5,163.5 244.5,163.5 242.5,163.5C 242.325,160.671 243.658,159.004 246.5,158.5C 245.284,157.904 243.951,157.737 242.5,158C 243.056,157.617 243.389,157.117 243.5,156.5 Z"/></g>
<g><path style="opacity:1" fill="#ffc2ba" d="M 56.5,147.5 C 57.1659,151.988 57.4992,156.654 57.5,161.5C 57.6917,168.404 57.025,175.07 55.5,181.5C 56.2941,170.185 56.6275,158.852 56.5,147.5 Z"/></g>
<g><path style="opacity:1" fill="#ffc0b8" d="M 71.5,160.5 C 71.3424,163.902 71.6758,167.236 72.5,170.5C 71.8826,170.389 71.3826,170.056 71,169.5C 70.1955,166.304 70.3622,163.304 71.5,160.5 Z"/></g>
<g><path style="opacity:1" fill="#ffdcd6" d="M 258.5,161.5 C 259.5,161.5 260.5,161.5 261.5,161.5C 261.778,163.346 261.111,164.68 259.5,165.5C 259.624,164.39 259.291,163.056 258.5,161.5 Z"/></g>
<g><path style="opacity:1" fill="#ae7067" d="M -0.5,168.5 C 5.35944,181.883 12.5261,194.55 21,206.5C 28.1818,213.179 35.6818,219.513 43.5,225.5C 41.8474,227.121 39.8474,228.288 37.5,229C 24.8377,229.5 12.1711,229.667 -0.5,229.5C -0.5,209.167 -0.5,188.833 -0.5,168.5 Z"/></g>
<g><path style="opacity:1" fill="#ffe3df" d="M 128.5,172.5 C 130.282,173.72 132.282,174.386 134.5,174.5C 134.37,182.965 133.37,183.299 131.5,175.5C 130.833,177.5 130.167,179.5 129.5,181.5C 128.516,178.572 128.183,175.572 128.5,172.5 Z"/></g>
<g><path style="opacity:1" fill="#ffdcd7" d="M 175.5,171.5 C 176.376,171.369 177.043,171.702 177.5,172.5C 175.192,173.873 174.525,173.54 175.5,171.5 Z"/></g>
<g><path style="opacity:1" fill="#ffe3df" d="M 188.5,172.5 C 190.282,173.72 192.282,174.386 194.5,174.5C 194.37,182.965 193.37,183.299 191.5,175.5C 190.833,177.5 190.167,179.5 189.5,181.5C 188.516,178.572 188.183,175.572 188.5,172.5 Z"/></g>
<g><path style="opacity:1" fill="#ffd8d3" d="M 210.5,171.5 C 211.386,170.224 212.386,170.224 213.5,171.5C 213.167,172.5 212.5,173.167 211.5,173.5C 211.213,172.8 210.88,172.133 210.5,171.5 Z"/></g>
<g><path style="opacity:1" fill="#ffdfdb" d="M 246.5,171.5 C 248.975,171.747 248.975,172.413 246.5,173.5C 245.537,173.03 245.537,172.363 246.5,171.5 Z"/></g>
<g><path style="opacity:1" fill="#ffbcb2" d="M 282.5,174.5 C 281.167,174.5 279.833,174.5 278.5,174.5C 279.833,170.5 281.167,170.5 282.5,174.5 Z"/></g>
<g><path style="opacity:1" fill="#ffdbd6" d="M 294.5,172.5 C 295.5,172.5 296.5,172.5 297.5,172.5C 297.5,173.5 297.5,174.5 297.5,175.5C 296.5,175.5 295.5,175.5 294.5,175.5C 294.5,174.5 294.5,173.5 294.5,172.5 Z"/></g>
<g><path style="opacity:1" fill="#ffe8e4" d="M 153.5,174.5 C 155.5,174.5 157.5,174.5 159.5,174.5C 159.5,177.5 159.5,180.5 159.5,183.5C 157.801,183.66 156.134,183.494 154.5,183C 155.5,182.667 156.5,182.333 157.5,182C 156.234,181.691 155.067,181.191 154,180.5C 153.505,178.527 153.338,176.527 153.5,174.5 Z"/></g>
<g><path style="opacity:1" fill="#ffe8e5" d="M 235.5,172.5 C 237.282,173.72 239.282,174.386 241.5,174.5C 241.37,182.965 240.37,183.299 238.5,175.5C 237.833,177.5 237.167,179.5 236.5,181.5C 235.516,178.572 235.183,175.572 235.5,172.5 Z"/></g>
<g><path style="opacity:1" fill="#ffe1dd" d="M 243.5,174.5 C 244.5,174.5 245.5,174.5 246.5,174.5C 246.527,182.394 247.193,182.394 248.5,174.5C 249.474,176.743 249.808,179.076 249.5,181.5C 244.094,182.265 242.094,179.931 243.5,174.5 Z"/></g>
<g><path style="opacity:1" fill="#ffd3cd" d="M 286.5,174.5 C 287.725,175.152 288.392,176.319 288.5,178C 288.167,179.167 287.833,180.333 287.5,181.5C 286.526,179.257 286.192,176.924 286.5,174.5 Z"/></g>
<g><path style="opacity:1" fill="#ff8979" d="M 155.5,175.5 C 156.649,175.791 157.316,176.624 157.5,178C 157.167,178.833 156.833,179.667 156.5,180.5C 155.548,178.955 155.215,177.288 155.5,175.5 Z"/></g>
<g><path style="opacity:1" fill="#ffe7e4" d="M 228.5,174.5 C 230.288,174.215 231.955,174.548 233.5,175.5C 232.609,176.59 231.609,176.59 230.5,175.5C 229.167,177.167 229.167,178.833 230.5,180.5C 231.609,179.41 232.609,179.41 233.5,180.5C 227.74,182.213 226.074,180.213 228.5,174.5 Z"/></g>
<g><path style="opacity:1" fill="#ffe6e3" d="M 252.5,174.5 C 254.5,174.5 256.5,174.5 258.5,174.5C 258.37,182.965 257.37,183.299 255.5,175.5C 253.63,183.299 252.63,182.965 252.5,174.5 Z"/></g>
<g><path style="opacity:1" fill="#ffe8e5" d="M 272.5,172.5 C 273.922,172.75 274.922,173.583 275.5,175C 274.167,177 274.167,179 275.5,181C 274.552,181.483 273.552,181.649 272.5,181.5C 272.108,178.324 272.108,175.324 272.5,172.5 Z"/></g>
<g><path style="opacity:1" fill="#ffe8e5" d="M 120.5,174.5 C 122.5,174.5 124.5,174.5 126.5,174.5C 126.5,176.833 126.5,179.167 126.5,181.5C 124.508,181.328 122.842,181.995 121.5,183.5C 120.516,180.572 120.183,177.572 120.5,174.5 Z"/></g>
<g><path style="opacity:1" fill="#ff9c8e" d="M 122.5,175.5 C 123.649,175.791 124.316,176.624 124.5,178C 124.167,178.833 123.833,179.667 123.5,180.5C 122.548,178.955 122.215,177.288 122.5,175.5 Z"/></g>
<g><path style="opacity:1" fill="#ffe7e3" d="M 145.5,174.5 C 147.5,174.5 149.5,174.5 151.5,174.5C 151.37,182.965 150.37,183.299 148.5,175.5C 146.63,183.299 145.63,182.965 145.5,174.5 Z"/></g>
<g><path style="opacity:1" fill="#ffe7e3" d="M 181.5,174.5 C 183.288,174.215 184.955,174.548 186.5,175.5C 186.062,176.506 185.396,176.506 184.5,175.5C 183.167,177.167 183.167,178.833 184.5,180.5C 185.396,179.494 186.062,179.494 186.5,180.5C 184.955,181.452 183.288,181.785 181.5,181.5C 181.5,179.167 181.5,176.833 181.5,174.5 Z"/></g>
<g><path style="opacity:1" fill="#ffe8e5" d="M 260.5,174.5 C 262.5,174.5 264.5,174.5 266.5,174.5C 266.664,177.187 266.497,179.854 266,182.5C 264.612,183.554 263.112,183.72 261.5,183C 265.226,181.957 264.893,181.457 260.5,181.5C 260.5,179.167 260.5,176.833 260.5,174.5 Z"/></g>
<g><path style="opacity:1" fill="#ff8776" d="M 262.5,175.5 C 263.649,175.791 264.316,176.624 264.5,178C 264.167,178.833 263.833,179.667 263.5,180.5C 262.548,178.955 262.215,177.288 262.5,175.5 Z"/></g>
<g><path style="opacity:1" fill="#ffece9" d="M 173.5,174.5 C 175.167,174.5 176.833,174.5 178.5,174.5C 178.5,176.833 178.5,179.167 178.5,181.5C 176.833,181.5 175.167,181.5 173.5,181.5C 173.5,180.167 173.5,178.833 173.5,177.5C 174.675,177.719 175.675,177.386 176.5,176.5C 176.062,175.494 175.396,175.494 174.5,176.5C 173.702,176.043 173.369,175.376 173.5,174.5 Z"/></g>
<g><path style="opacity:1" fill="#ffe7e3" d="M 137.5,174.5 C 143.158,173.679 144.825,175.846 142.5,181C 140.866,181.494 139.199,181.66 137.5,181.5C 137.5,179.167 137.5,176.833 137.5,174.5 Z"/></g>
<g><path style="opacity:1" fill="#ff8877" d="M 139.5,175.5 C 140.649,175.791 141.316,176.624 141.5,178C 141.167,178.833 140.833,179.667 140.5,180.5C 139.548,178.955 139.215,177.288 139.5,175.5 Z"/></g>
<g><path style="opacity:1" fill="#ffa699" d="M 174.5,178.5 C 176.337,178.639 176.67,179.306 175.5,180.5C 174.702,180.043 174.369,179.376 174.5,178.5 Z"/></g>
<g><path style="opacity:1" fill="#ffe8e4" d="M 165.5,174.5 C 167.288,174.215 168.955,174.548 170.5,175.5C 170.062,176.506 169.396,176.506 168.5,175.5C 167.167,177.167 167.167,178.833 168.5,180.5C 169.396,179.494 170.062,179.494 170.5,180.5C 168.955,181.452 167.288,181.785 165.5,181.5C 165.5,179.167 165.5,176.833 165.5,174.5 Z"/></g>
<g><path style="opacity:1" fill="#ffeae7" d="M 201.5,174.5 C 203.288,174.215 204.955,174.548 206.5,175.5C 205.609,176.59 204.609,176.59 203.5,175.5C 202.167,177.167 202.167,178.833 203.5,180.5C 204.609,179.41 205.609,179.41 206.5,180.5C 200.74,182.213 199.074,180.213 201.5,174.5 Z"/></g>
<g><path style="opacity:1" fill="#ffe5e1" d="M 208.5,174.5 C 210.036,176.025 211.036,178.025 211.5,180.5C 213.37,172.701 214.37,173.035 214.5,181.5C 212.5,181.5 210.5,181.5 208.5,181.5C 208.5,179.167 208.5,176.833 208.5,174.5 Z"/></g>
<g><path style="opacity:1" fill="#ffe9e6" d="M 216.5,174.5 C 221.906,173.735 223.906,176.069 222.5,181.5C 220.5,181.5 218.5,181.5 216.5,181.5C 216.5,180.167 216.5,178.833 216.5,177.5C 217.978,177.762 219.311,177.429 220.5,176.5C 219.609,175.41 218.609,175.41 217.5,176.5C 216.702,176.043 216.369,175.376 216.5,174.5 Z"/></g>
<g><path style="opacity:1" fill="#ffaca0" d="M 218.5,178.5 C 220.337,178.639 220.67,179.306 219.5,180.5C 218.702,180.043 218.369,179.376 218.5,178.5 Z"/></g>
<g><path style="opacity:1" fill="#ffe6e2" d="M 278.5,174.5 C 279.833,174.5 281.167,174.5 282.5,174.5C 283.468,176.607 283.802,178.941 283.5,181.5C 277.753,182.129 276.086,179.795 278.5,174.5 Z"/></g>
<g><path style="opacity:1" fill="#ff8a7a" d="M 279.5,175.5 C 280.649,175.791 281.316,176.624 281.5,178C 281.167,178.833 280.833,179.667 280.5,180.5C 279.548,178.955 279.215,177.288 279.5,175.5 Z"/></g>
<g><path style="opacity:1" fill="#ffe9e6" d="M 290.5,179.5 C 292.337,179.639 292.67,180.306 291.5,181.5C 290.702,181.043 290.369,180.376 290.5,179.5 Z"/></g>
<g><path style="opacity:1" fill="#ffb4a9" d="M 55.5,181.5 C 55.5557,186.731 54.889,191.731 53.5,196.5C 53.4443,191.269 54.111,186.269 55.5,181.5 Z"/></g>
<g><path style="opacity:1" fill="#ffbeb5" d="M 53.5,200.5 C 53.2354,207.736 52.2354,214.736 50.5,221.5C 50.6784,214.251 51.6784,207.251 53.5,200.5 Z"/></g>
</svg>
